# xmcd
#
# Track frame offsets: 
#        150
#        28878
#        57237
#        99265
#        126440
#        155643
#        202200
#        230268
#        265138
#        294988
#        324154
#
# Disc length: 4775 seconds
#
# Revision: 0
# Processed by: cddbd v1.5.2PL0 Copyright (c) Steve Scherf et al.
# Submitted via: ExactAudioCopy v1.3
#
DISCID=9b12a50b
DTITLE=Various Artist - Akella Presents - vol.206 - Longtime of Blues
DTITLE=Rock  CD2
DYEAR=2019
DGENRE=Blues
TTITLE0=Jeff Liberman - I Won't Let You Down
TTITLE1=Haranni Hurricanes - Monday Morning Blues
TTITLE2=Black Bottle Riot - One With The Dust
TTITLE3=Storm Warning - What Have You Done
TTITLE4=Big Wolf Band - Just Can't Find You
TTITLE5=Eric Tessmer - Love Is Taking Its Toll
TTITLE6=Bad Touch - Preacher
TTITLE7=Scotty Bratcher - As the Years Go Passing By
TTITLE8=The Mike Eldred Trio - Can't Buy Me Love
TTITLE9=Shaw Davis and The Black Ties - I Gotta Try You Girl
TTITLE10=Catfish - Catfish Blues
EXTD=
EXTT0=
EXTT1=
EXTT2=
EXTT3=
EXTT4=
EXTT5=
EXTT6=
EXTT7=
EXTT8=
EXTT9=
EXTT10=
PLAYORDER=
